<svg version="1.1" id="Layer_1" xmlns="http://www.w3.org/2000/svg" xmlns:xlink="http://www.w3.org/1999/xlink" x="0px" y="0px"
	 width="100%" viewBox="0 0 1280 1263" enable-background="new 0 0 1280 1263" xml:space="preserve">
<path fill="#FFFFFF" opacity="1.000000" stroke="none" 
	d="
M757.000000,1264.000000 
	C679.979126,1264.000000 602.958191,1264.000000 525.637573,1263.657471 
	C512.418701,1238.625000 499.069916,1214.149048 486.651947,1189.209595 
	C417.532562,1050.394775 366.135132,905.602661 339.697144,752.393982 
	C330.801910,700.846008 324.718475,648.991577 322.281281,596.767334 
	C319.490051,536.957214 320.364899,477.196777 326.869202,417.585449 
	C330.368896,385.511017 335.378784,353.724365 343.004639,322.362244 
	C354.837952,273.696564 372.065704,227.269226 400.054291,185.346527 
	C417.015076,159.941818 437.355499,137.639603 461.815735,119.226463 
	C503.169006,88.096619 550.375488,72.400955 601.321655,67.148300 
	C636.936523,63.476337 672.491882,64.489502 707.784424,71.037148 
	C739.689819,76.956406 769.860352,87.615288 797.737122,104.377846 
	C843.737793,132.038437 876.630005,171.597656 901.062134,218.741714 
	C923.224487,261.506012 936.711670,307.200195 945.791138,354.252289 
	C955.558594,404.869934 959.820312,456.107788 960.890198,507.587250 
	C962.057800,563.768677 959.646729,619.804565 953.177002,675.672119 
	C948.452148,716.472900 942.064697,756.989807 933.710754,797.180847 
	C920.407104,861.185364 902.864563,924.037231 881.447388,985.808594 
	C848.609924,1080.517944 807.216980,1171.385254 758.901245,1259.153931 
	C758.071472,1260.661377 757.625183,1262.379883 757.000000,1264.000000 
z"/>
<path fill="#000000" opacity="1.000000" stroke="none" 
	d="
M757.468628,1264.000000 
	C757.625183,1262.379883 758.071472,1260.661377 758.901245,1259.153931 
	C807.216980,1171.385254 848.609924,1080.517944 881.447388,985.808594 
	C902.864563,924.037231 920.407104,861.185364 933.710754,797.180847 
	C942.064697,756.989807 948.452148,716.472900 953.177002,675.672119 
	C959.646729,619.804565 962.057800,563.768677 960.890198,507.587250 
	C959.820312,456.107788 955.558594,404.869934 945.791138,354.252289 
	C936.711670,307.200195 923.224487,261.506012 901.062134,218.741714 
	C876.630005,171.597656 843.737793,132.038437 797.737122,104.377846 
	C769.860352,87.615288 739.689819,76.956406 707.784424,71.037148 
	C672.491882,64.489502 636.936523,63.476337 601.321655,67.148300 
	C550.375488,72.400955 503.169006,88.096619 461.815735,119.226463 
	C437.355499,137.639603 417.015076,159.941818 400.054291,185.346527 
	C372.065704,227.269226 354.837952,273.696564 343.004639,322.362244 
	C335.378784,353.724365 330.368896,385.511017 326.869202,417.585449 
	C320.364899,477.196777 319.490051,536.957214 322.281281,596.767334 
	C324.718475,648.991577 330.801910,700.846008 339.697144,752.393982 
	C366.135132,905.602661 417.532562,1050.394775 486.651947,1189.209595 
	C499.069916,1214.149048 512.418701,1238.625000 525.168884,1263.657471 
	C382.979095,1264.000000 240.958206,1264.000000 98.761368,1263.672241 
	C98.173058,1261.909424 97.772682,1260.470703 97.346603,1259.039673 
	C70.846703,1170.041870 44.367592,1081.037720 17.824144,992.052917 
	C12.339243,973.665161 6.614305,955.349121 0.999999,937.000000 
	C1.000000,937.000000 1.000000,936.500000 1.467936,936.220947 
	C18.745562,935.941956 35.555252,935.941956 52.509041,935.941956 
	C69.146210,987.804626 85.710594,1039.440308 102.187469,1090.803345 
	C190.277206,1090.803345 277.706696,1090.803345 365.545624,1090.803345 
	C365.545624,1084.948608 365.861267,1079.291138 365.409637,1073.695557 
	C365.190826,1070.984619 364.188354,1067.807983 362.430328,1065.828003 
	C323.281219,1021.738770 285.530273,976.525940 251.152374,928.572449 
	C214.991592,878.132202 182.492081,825.546143 157.417206,768.609375 
	C128.940506,703.948303 111.319427,636.505859 106.270638,565.973877 
	C103.170151,522.659851 104.783707,479.432739 111.108406,436.440979 
	C116.021690,403.043152 123.994560,370.360626 135.449051,338.601410 
	C168.903915,245.843109 227.204453,171.434845 304.284576,111.037300 
	C344.262207,79.712090 388.044434,55.040268 435.528656,36.985531 
	C487.114349,17.371311 540.530762,6.313867 595.561462,2.770351 
	C599.396362,2.523414 603.188171,1.605759 607.000000,1.000003 
	C629.020874,1.000000 651.041809,1.000000 673.716553,1.386117 
	C694.385437,3.815591 714.463196,5.381733 734.402222,8.002629 
	C774.689209,13.298162 813.720825,23.788731 851.483093,38.708595 
	C935.551575,71.924080 1005.481140,124.621124 1063.247070,193.769867 
	C1100.889893,238.830307 1129.507446,289.090454 1148.566772,344.673096 
	C1163.178833,387.285889 1171.728638,431.130371 1175.220337,476.050415 
	C1178.890869,523.268738 1177.308594,570.249573 1169.770264,616.979675 
	C1161.059326,670.978638 1144.956299,722.781616 1122.455933,772.614075 
	C1092.404297,839.170044 1053.048218,900.103516 1008.451294,957.589478 
	C979.790649,994.533386 949.057861,1029.869507 919.286865,1065.953369 
	C918.164429,1067.313721 916.645569,1068.926147 916.577209,1070.476929 
	C916.279053,1077.243164 916.448975,1084.030029 916.448975,1090.804932 
	C1004.308350,1090.804932 1091.579590,1090.804932 1178.966675,1090.804932 
	C1195.852783,1039.040771 1212.683105,987.447449 1229.465942,936.000000 
	C1247.011719,936.000000 1264.005859,936.000000 1281.000000,936.000000 
	C1281.000000,936.000000 1281.000000,936.500000 1280.748413,937.020630 
	C1279.977661,939.289917 1279.464600,941.040466 1278.938477,942.787048 
	C1249.411133,1040.813599 1219.863281,1138.833984 1190.387207,1236.875854 
	C1187.690063,1245.846680 1185.451538,1254.955322 1183.000000,1264.000000 
	C1041.312500,1264.000000 899.624878,1264.000000 757.468628,1264.000000 
z"/>
<path fill="#FFFFFF" opacity="1.000000" stroke="none" 
	d="
M1281.000000,935.531372 
	C1264.005859,936.000000 1247.011719,936.000000 1229.465942,936.000000 
	C1212.683105,987.447449 1195.852783,1039.040771 1178.966675,1090.804932 
	C1091.579590,1090.804932 1004.308350,1090.804932 916.448975,1090.804932 
	C916.448975,1084.030029 916.279053,1077.243164 916.577209,1070.476929 
	C916.645569,1068.926147 918.164429,1067.313721 919.286865,1065.953369 
	C949.057861,1029.869507 979.790649,994.533386 1008.451294,957.589478 
	C1053.048218,900.103516 1092.404297,839.170044 1122.455933,772.614075 
	C1144.956299,722.781616 1161.059326,670.978638 1169.770264,616.979675 
	C1177.308594,570.249573 1178.890869,523.268738 1175.220337,476.050415 
	C1171.728638,431.130371 1163.178833,387.285889 1148.566772,344.673096 
	C1129.507446,289.090454 1100.889893,238.830307 1063.247070,193.769867 
	C1005.481140,124.621124 935.551575,71.924080 851.483093,38.708595 
	C813.720825,23.788731 774.689209,13.298162 734.402222,8.002629 
	C714.463196,5.381733 694.385437,3.815591 674.185242,1.386117 
	C876.275940,1.000000 1078.551880,1.000000 1281.000000,1.000000 
	C1281.000000,312.354218 1281.000000,623.708435 1281.000000,935.531372 
z"/>
<path fill="#FFFFFF" opacity="1.000000" stroke="none" 
	d="
M606.531372,1.000003 
	C603.188171,1.605759 599.396362,2.523414 595.561462,2.770351 
	C540.530762,6.313867 487.114349,17.371311 435.528656,36.985531 
	C388.044434,55.040268 344.262207,79.712090 304.284576,111.037300 
	C227.204453,171.434845 168.903915,245.843109 135.449051,338.601410 
	C123.994560,370.360626 116.021690,403.043152 111.108406,436.440979 
	C104.783707,479.432739 103.170151,522.659851 106.270638,565.973877 
	C111.319427,636.505859 128.940506,703.948303 157.417206,768.609375 
	C182.492081,825.546143 214.991592,878.132202 251.152374,928.572449 
	C285.530273,976.525940 323.281219,1021.738770 362.430328,1065.828003 
	C364.188354,1067.807983 365.190826,1070.984619 365.409637,1073.695557 
	C365.861267,1079.291138 365.545624,1084.948608 365.545624,1090.803345 
	C277.706696,1090.803345 190.277206,1090.803345 102.187469,1090.803345 
	C85.710594,1039.440308 69.146210,987.804626 52.509041,935.941956 
	C35.555252,935.941956 18.745562,935.941956 1.467936,935.970947 
	C1.000000,624.421814 1.000000,312.843597 1.000000,1.000000 
	C202.687485,1.000000 404.375092,1.000000 606.531372,1.000003 
z"/>
<path fill="#FEFEFE" opacity="1.000000" stroke="none" 
	d="
M1183.468628,1264.000000 
	C1185.451538,1254.955322 1187.690063,1245.846680 1190.387207,1236.875854 
	C1219.863281,1138.833984 1249.411133,1040.813599 1278.938477,942.787048 
	C1279.464600,941.040466 1279.977661,939.289917 1280.748413,937.270630 
	C1281.000000,1045.887695 1281.000000,1154.775513 1281.000000,1264.000000 
	C1248.646484,1264.000000 1216.291870,1264.000000 1183.468628,1264.000000 
z"/>
<path fill="#FEFEFE" opacity="1.000000" stroke="none" 
	d="
M0.999999,937.468628 
	C6.614305,955.349121 12.339243,973.665161 17.824144,992.052917 
	C44.367592,1081.037720 70.846703,1170.041870 97.346603,1259.039673 
	C97.772682,1260.470703 98.173058,1261.909424 98.292709,1263.672241 
	C65.700058,1264.000000 33.400112,1264.000000 1.000000,1264.000000 
	C1.000000,1155.312500 1.000000,1046.624878 0.999999,937.468628 
z"/>
</svg>